<svg t="1587288729414" class="icon" viewBox="0 0 1024 1024" version="1.1" xmlns="http://www.w3.org/2000/svg" p-id="2613" width="200" height="200"><path d="M8.247298 593.707337a503.75168 255.146955 0 1 0 1007.503359 0 503.75168 255.146955 0 1 0-1007.503359 0Z" fill="#FFC610" p-id="2614"></path><path d="M8.247298 593.707337c0-140.657937 225.706921-255.146955 503.75168-255.146955s503.75168 114.489018 503.751679 255.146955" fill="#FFA412" p-id="2615"></path><path d="M485.830059 850.489849s3.271115 31.075591 9.813345 60.515623-34.346705 40.888935-17.991132 55.608952c0 0-8.177787-6.54223 9.813345-16.355574s22.897804-24.533361 16.355574-44.16005c-6.54223-17.991131-13.084459-57.244509-9.813345-65.422296l-8.177787 9.813345z" fill="#A80404" p-id="2616"></path><path d="M467.838928 853.760963s13.084459 70.328968-13.084459 101.404559 32.711148 37.61782 21.262246 44.16005 1.635557 24.533361 1.635557 24.533361-8.177787-13.084459 6.54223-16.355574 6.54223-17.991131-9.813344-31.07559-11.448902-21.262246 3.271114-47.431165-4.906672-58.880066-1.635557-80.142313-8.177787 4.906672-8.177787 4.906672z" fill="#FF0606" p-id="2617"></path><path d="M459.661141 886.472111s6.54223 60.515624-37.61782 70.328969-35.982263 34.346705-35.982263 34.346705-17.991131-21.262246 13.084459-37.61782c29.440033-14.720017 14.720017-3.271115 22.897804-4.906672s4.906672-8.177787 16.355574-14.720017 16.355574-17.991131 17.991131-31.075591 3.271115-16.355574 3.271115-16.355574z" fill="#FF0606" p-id="2618"></path><path d="M438.398895 960.072195s-42.524492 8.177787-17.991132 31.07559-1.635557 34.346705 1.635558 22.897804c0 0 1.635557 21.262246 19.626689 1.635557s-24.533361-31.075591-19.626689-40.888935c6.54223-11.448902 16.355574-14.720017 16.355574-14.720016z" fill="#A80404" p-id="2619"></path><path d="M511.998978 897.921013s-9.813344-31.075591-4.906672-47.431164h4.906672v47.431164zM510.36342 945.352178s0 34.346705-9.813344 31.075591c-9.813344-3.271115-11.448902-14.720017 0-16.355574 0 0-14.720017-4.906672-14.720017 9.813344 1.635557 13.084459 14.720017 24.533361 22.897804 16.355574 8.177787-9.813344 1.635557-40.888935 1.635557-40.888935z" fill="#FF0606" p-id="2620"></path><path d="M538.167896 850.489849s-3.271115 31.075591-9.813344 60.515623c-6.54223 29.440033 34.346705 40.888935 17.991131 55.608952 0 0 8.177787-6.54223-9.813344-16.355574s-22.897804-24.533361-16.355574-44.16005c6.54223-17.991131 13.084459-57.244509 9.813344-65.422296l8.177787 9.813345z" fill="#A80404" p-id="2621"></path><path d="M556.159028 853.760963s-13.084459 70.328968 13.084459 101.404559-32.711148 37.61782-21.262246 44.16005-1.635557 24.533361-1.635558 24.533361 8.177787-13.084459-6.542229-16.355574-6.54223-17.991131 9.813344-31.07559 11.448902-21.262246-3.271115-47.431165 4.906672-58.880066 1.635558-80.142313 8.177787 4.906672 8.177787 4.906672z" fill="#FF0606" p-id="2622"></path><path d="M564.336815 886.472111s-6.54223 60.515624 37.61782 70.328969 35.982263 34.346705 35.982263 34.346705 17.991131-21.262246-13.08446-37.61782c-29.440033-14.720017-14.720017-3.271115-22.897803-4.906672s-4.906672-8.177787-16.355574-14.720017-16.355574-17.991131-17.991132-31.075591-3.271115-16.355574-3.271114-16.355574z" fill="#FF0606" p-id="2623"></path><path d="M585.599061 960.072195s42.524492 8.177787 17.991131 31.07559 1.635557 34.346705-1.635557 22.897804c0 0-1.635557 21.262246-19.626689 1.635557-17.991131-19.626689 24.533361-31.075591 19.626689-40.888935-6.54223-11.448902-16.355574-14.720017-16.355574-14.720016z" fill="#A80404" p-id="2624"></path><path d="M511.998978 897.921013s9.813344-31.075591 4.906672-47.431164h-4.906672v47.431164zM513.634535 945.352178s0 34.346705 9.813345 31.075591c9.813344-3.271115 11.448902-14.720017 0-16.355574 0 0 14.720017-4.906672 14.720016 9.813344-1.635557 13.084459-14.720017 24.533361-22.897803 16.355574-8.177787-9.813344-1.635557-40.888935-1.635558-40.888935z" fill="#FF0606" p-id="2625"></path><path d="M528.354552 0v73.600083c0 24.533361-6.54223 44.16005-16.355574 44.16005s-16.355574-19.626689-16.355574-44.16005V0" fill="#FFA412" p-id="2626"></path><path d="M142.363005 356.551513a369.635973 307.484791 0 1 0 739.271945 0 369.635973 307.484791 0 1 0-739.271945 0Z" fill="#C60606" p-id="2627"></path><path d="M881.63495 356.551513c0 170.09797-165.191298 307.484791-369.635972 307.484792s-369.635973-137.386822-369.635973-307.484792" fill="#A80404" p-id="2628"></path><path d="M233.95422 356.551513a307.484791 278.044758 90 1 0 556.089516 0 307.484791 278.044758 90 1 0-556.089516 0Z" fill="#FF0606" p-id="2629"></path><path d="M790.043736 356.551513c0 170.09797-124.302362 307.484791-278.044758 307.484792s-278.044758-137.386822-278.044758-307.484792" fill="#D10D0D" p-id="2630"></path><path d="M359.892139 356.551513a307.484791 152.106838 90 1 0 304.213677 0 307.484791 152.106838 90 1 0-304.213677 0Z" fill="#C60606" p-id="2631"></path><path d="M664.105816 356.551513c0 170.09797-68.693411 307.484791-152.106838 307.484792s-152.106838-137.386822-152.106839-307.484792" fill="#A80404" p-id="2632"></path><path d="M456.390026 356.551513a307.484791 55.608952 90 1 0 111.217903 0 307.484791 55.608952 90 1 0-111.217903 0Z" fill="#FF0606" p-id="2633"></path><path d="M567.607929 356.551513c0 170.09797-24.533361 307.484791-55.608951 307.484792s-55.608952-137.386822-55.608952-307.484792" fill="#D10D0D" p-id="2634"></path><path d="M608.860776 99.811935l-19.667578 19.653266-19.653266-19.669622 19.667577-19.653266zM609.778733 150.113503l-19.6778 19.645089-19.643045-19.6778 19.6778-19.645089zM597.047963 197.902446c0 3.271115-3.271115 6.54223-6.54223 6.542229s-6.54223-3.271115-6.54223-6.542229 3.271115-6.54223 6.54223-6.54223c3.271115-1.635557 6.54223 1.635557 6.54223 6.54223zM597.047963 243.698053c0 3.271115-3.271115 6.54223-6.54223 6.542229s-6.54223-3.271115-6.54223-6.542229 3.271115-6.54223 6.54223-6.54223c3.271115-1.635557 6.54223 1.635557 6.54223 6.54223zM597.047963 289.49366c0 3.271115-3.271115 6.54223-6.54223 6.54223s-6.54223-3.271115-6.54223-6.54223 3.271115-6.54223 6.54223-6.54223 6.54223 1.635557 6.54223 6.54223zM530.378554 99.838513l-19.667578 19.651222-19.653266-19.667578 19.667577-19.653267zM531.304688 150.183014l-19.6778 19.643044-19.643044-19.6778 19.6778-19.643044zM518.541207 197.902446c0 3.271115-3.271115 6.54223-6.542229 6.542229s-6.54223-3.271115-6.54223-6.542229 3.271115-6.54223 6.54223-6.54223c3.271115-1.635557 6.54223 1.635557 6.542229 6.54223zM518.541207 243.698053c0 3.271115-3.271115 6.54223-6.542229 6.542229s-6.54223-3.271115-6.54223-6.542229 3.271115-6.54223 6.54223-6.54223c3.271115-1.635557 6.54223 1.635557 6.542229 6.54223zM518.541207 289.49366c0 3.271115-3.271115 6.54223-6.542229 6.54223s-6.54223-3.271115-6.54223-6.54223 3.271115-6.54223 6.54223-6.54223 6.54223 1.635557 6.542229 6.54223zM451.912688 99.916202l-19.667578 19.651222-19.653267-19.667578 19.667578-19.653267zM452.8286 150.185058l-19.675756 19.645089-19.645088-19.6778 19.6778-19.643044zM440.034452 197.902446c0 3.271115-3.271115 6.54223-6.542229 6.542229s-6.54223-3.271115-6.54223-6.542229 3.271115-6.54223 6.54223-6.54223c3.271115-1.635557 6.54223 1.635557 6.542229 6.54223zM440.034452 243.698053c0 3.271115-3.271115 6.54223-6.542229 6.542229s-6.54223-3.271115-6.54223-6.542229 3.271115-6.54223 6.54223-6.54223c3.271115-1.635557 6.54223 1.635557 6.542229 6.54223zM440.034452 289.49366c0 3.271115-3.271115 6.54223-6.542229 6.54223s-6.54223-3.271115-6.54223-6.54223 3.271115-6.54223 6.54223-6.54223 6.54223 1.635557 6.542229 6.54223z" fill="#FFC610" p-id="2635"></path><path d="M641.208012 49.066722c0 19.626689-16.355574 32.711148-34.346705 32.711148h-188.089101c-19.626689 0-34.346705-13.084459-34.346706-32.711148s16.355574-32.711148 34.346706-32.711148h186.453544c19.626689 0 35.982263 13.084459 35.982262 32.711148z" fill="#841212" p-id="2636"></path><path d="M641.208012 47.431165c0 19.626689-16.355574 34.346705-34.346705 34.346705h-188.089101c-19.626689 0-34.346705-16.355574-34.346706-34.346705" fill="#5E0404" p-id="2637"></path><path d="M592.14129 678.756322c0 11.448902-9.813344 24.533361-21.262246 24.533361h-116.124575c-11.448902 0-21.262246-13.084459-21.262246-24.533361s9.813344-24.533361 21.262246-24.533362h116.124575c11.448902 0 21.262246 13.084459 21.262246 24.533362z" fill="#841212" p-id="2638"></path><path d="M592.14129 678.756322c0 11.448902-9.813344 24.533361-21.262246 24.533361h-116.124575c-11.448902 0-21.262246-11.448902-21.262246-22.897804" fill="#5E0404" p-id="2639"></path><path d="M592.14129 719.645257c0 11.448902-9.813344 16.355574-21.262246 16.355574h-116.124575c-11.448902 0-21.262246-4.906672-21.262246-16.355574s9.813344-16.355574 21.262246-16.355574h116.124575c11.448902 0 21.262246 4.906672 21.262246 16.355574z" fill="#841212" p-id="2640"></path><path d="M592.14129 716.374142c0 11.448902-9.813344 19.626689-21.262246 19.626689h-116.124575c-11.448902 0-21.262246-8.177787-21.262246-21.262247" fill="#5E0404" p-id="2641"></path><path d="M426.949993 47.431165m-8.177787 0a8.177787 8.177787 0 1 0 16.355574 0 8.177787 8.177787 0 1 0-16.355574 0Z" fill="#FFA412" p-id="2642"></path><path d="M469.474485 47.431165m-8.177787 0a8.177787 8.177787 0 1 0 16.355574 0 8.177787 8.177787 0 1 0-16.355574 0Z" fill="#FFA412" p-id="2643"></path><path d="M511.998978 47.431165m-8.177787 0a8.177787 8.177787 0 1 0 16.355574 0 8.177787 8.177787 0 1 0-16.355574 0Z" fill="#FFA412" p-id="2644"></path><path d="M554.52347 47.431165m-8.177787 0a8.177787 8.177787 0 1 0 16.355574 0 8.177787 8.177787 0 1 0-16.355574 0Z" fill="#FFA412" p-id="2645"></path><path d="M606.861307 47.431165c0 4.906672-3.271115 8.177787-8.177787 8.177787s-8.177787-3.271115-8.177787-8.177787 3.271115-8.177787 8.177787-8.177787c3.271115 0 8.177787 3.271115 8.177787 8.177787zM286.292056 392.533776s-32.711148 62.151181 22.897804 81.77787c55.608952 17.991131 65.422296 44.16005 58.880066 65.422296s-34.346705 35.982263-53.973394 6.54223c-19.626689-31.075591 11.448902-45.795607 32.711148-19.626689 0 0-11.448902-26.168918-32.711148-16.355574-22.897804 9.813344-4.906672 60.515624 35.982263 55.608952s39.253378-81.77787-11.448902-111.217903-45.795607-65.422296-29.440033-76.871198 40.888935 29.440033 13.084459 35.982263c0 0 42.524492-6.54223 17.991132-35.982263-27.804476-32.711148-37.61782-14.720017-42.524493-4.906673-6.54223 9.813344-11.448902 19.626689-11.448902 19.626689z" fill="#FFA412" p-id="2646"></path><path d="M374.612156 577.351763m-3.271115 0a3.271115 3.271115 0 1 0 6.54223 0 3.271115 3.271115 0 1 0-6.54223 0Z" fill="#FFA412" p-id="2647"></path><path d="M389.332173 598.614009m-6.54223 0a6.54223 6.54223 0 1 0 13.084459 0 6.54223 6.54223 0 1 0-13.084459 0Z" fill="#FFA412" p-id="2648"></path><path d="M404.052189 613.334025m-1.635557 0a1.635557 1.635557 0 1 0 3.271115 0 1.635557 1.635557 0 1 0-3.271115 0Z" fill="#FFA412" p-id="2649"></path><path d="M418.772206 624.782927m-1.635557 0a1.635557 1.635557 0 1 0 3.271114 0 1.635557 1.635557 0 1 0-3.271114 0Z" fill="#FFA412" p-id="2650"></path><path d="M338.629893 538.098385m-4.906672 0a4.906672 4.906672 0 1 0 9.813344 0 4.906672 4.906672 0 1 0-9.813344 0Z" fill="#FFA412" p-id="2651"></path><path d="M315.73209 400.711563m-6.54223 0a6.54223 6.54223 0 1 0 13.084459 0 6.54223 6.54223 0 1 0-13.084459 0Z" fill="#FFA412" p-id="2652"></path><path d="M330.452106 428.516039s13.084459-1.635557 19.626689-21.262246c0 0 8.177787 21.262246-4.906672 22.897804s-14.720017-1.635557-14.720017-1.635558zM340.265451 439.964941l16.355574-3.271115s-4.906672 11.448902-8.177787 8.177787-8.177787-4.906672-8.177787-4.906672zM433.492223 420.338252c0 1.635557-1.635557 3.271115-3.271115 3.271115h-42.524493c-1.635557 0-3.271115-1.635557-3.271115-3.271115s1.635557-3.271115 3.271115-3.271115h42.524493c1.635557 1.635557 3.271115 1.635557 3.271115 3.271115zM435.12778 443.236056c0 1.635557-1.635557 3.271115-1.635557 3.271115h-42.524493c-1.635557 0-1.635557-1.635557-1.635557-3.271115s1.635557-3.271115 1.635557-3.271115h42.524493c0 1.635557 1.635557 1.635557 1.635557 3.271115zM436.763337 466.133859c0 1.635557-1.635557 3.271115-3.271114 3.271115h-42.524493c-1.635557 0-1.635557-1.635557-1.635557-3.271115s1.635557-3.271115 1.635557-3.271114h42.524493c3.271115 1.635557 3.271115 1.635557 3.271114 3.271114zM440.034452 489.031663c0 1.635557-1.635557 3.271115-3.271115 3.271115h-42.524492c-1.635557 0-3.271115-1.635557-3.271115-3.271115s1.635557-3.271115 3.271115-3.271115h42.524492l3.271115 3.271115zM737.705899 392.533776s32.711148 62.151181-22.897803 81.77787c-55.608952 17.991131-65.422296 44.16005-58.880067 65.422296s34.346705 35.982263 53.973394 6.54223c19.626689-31.075591-11.448902-45.795607-32.711148-19.626689 0 0 11.448902-26.168918 32.711148-16.355574 22.897804 9.813344 4.906672 60.515624-35.982263 55.608952s-39.253378-81.77787 11.448902-111.217903c50.702279-29.440033 45.795607-65.422296 29.440034-76.871198s-40.888935 29.440033-13.08446 35.982263c0 0-42.524492-6.54223-17.991131-35.982263 27.804476-32.711148 37.61782-14.720017 42.524492-4.906673 6.54223 9.813344 11.448902 19.626689 11.448902 19.626689z" fill="#FFA412" p-id="2653"></path><path d="M649.385799 577.351763m-3.271114 0a3.271115 3.271115 0 1 0 6.542229 0 3.271115 3.271115 0 1 0-6.542229 0Z" fill="#FFA412" p-id="2654"></path><path d="M634.665783 598.614009m-6.54223 0a6.54223 6.54223 0 1 0 13.084459 0 6.54223 6.54223 0 1 0-13.084459 0Z" fill="#FFA412" p-id="2655"></path><path d="M619.945766 613.334025m-1.635557 0a1.635557 1.635557 0 1 0 3.271115 0 1.635557 1.635557 0 1 0-3.271115 0Z" fill="#FFA412" p-id="2656"></path><path d="M605.22575 624.782927m-1.635558 0a1.635557 1.635557 0 1 0 3.271115 0 1.635557 1.635557 0 1 0-3.271115 0Z" fill="#FFA412" p-id="2657"></path><path d="M685.368062 538.098385m-4.906672 0a4.906672 4.906672 0 1 0 9.813345 0 4.906672 4.906672 0 1 0-9.813345 0Z" fill="#FFA412" p-id="2658"></path><path d="M708.265866 400.711563m-6.54223 0a6.54223 6.54223 0 1 0 13.08446 0 6.54223 6.54223 0 1 0-13.08446 0Z" fill="#FFA412" p-id="2659"></path><path d="M693.545849 428.516039s-13.084459-1.635557-19.626689-21.262246c0 0-8.177787 21.262246 4.906673 22.897804s14.720017-1.635557 14.720016-1.635558zM683.732505 439.964941l-16.355574-3.271115s4.906672 11.448902 8.177787 8.177787 8.177787-4.906672 8.177787-4.906672zM590.505733 420.338252c0 1.635557 1.635557 3.271115 3.271115 3.271115h42.524492c1.635557 0 3.271115-1.635557 3.271115-3.271115s-1.635557-3.271115-3.271115-3.271115h-42.524492c-1.635557 1.635557-3.271115 1.635557-3.271115 3.271115zM588.870176 443.236056c0 1.635557 1.635557 3.271115 1.635557 3.271115h42.524492c1.635557 0 3.271115-1.635557 3.271115-3.271115s-1.635557-3.271115-3.271115-3.271115h-42.524492c0 1.635557-1.635557 1.635557-1.635557 3.271115zM587.234618 466.133859c0 1.635557 1.635557 3.271115 3.271115 3.271115h42.524492c1.635557 0 1.635557-1.635557 1.635558-3.271115s-1.635557-3.271115-1.635558-3.271114h-42.524492c-3.271115 1.635557-3.271115 1.635557-3.271115 3.271114zM583.963503 489.031663c0 1.635557 1.635557 3.271115 3.271115 3.271115h42.524493c1.635557 0 3.271115-1.635557 3.271114-3.271115s-1.635557-3.271115-3.271114-3.271115h-42.524493l-3.271115 3.271115z" fill="#FFA412" p-id="2660"></path><path d="M479.28783 837.405389c0 3.271115-3.271115 6.54223-6.54223 6.54223h-4.906672c-3.271115 0-6.54223-3.271115-6.54223-6.54223v-103.040116c0-3.271115 3.271115-6.54223 6.54223-6.542229h4.906672c3.271115 0 6.54223 3.271115 6.54223 6.542229v103.040116z" fill="#FF0606" p-id="2661"></path><path d="M495.643404 834.134275c0 3.271115-4.906672 6.54223-8.177787 6.542229s-8.177787-3.271115-8.177787-6.542229v-99.769002c0-3.271115 4.906672-6.54223 8.177787-6.542229s8.177787 3.271115 8.177787 6.542229V834.134275z" fill="#A80404" p-id="2662"></path><path d="M511.998978 837.405389c0 3.271115-3.271115 6.54223-6.54223 6.54223h-4.906672c-3.271115 0-6.54223-3.271115-6.54223-6.54223v-103.040116c0-3.271115 3.271115-6.54223 6.54223-6.542229h4.906672c3.271115 0 6.54223 3.271115 6.54223 6.542229v103.040116z" fill="#FF0606" p-id="2663"></path><path d="M528.354552 834.134275c0 3.271115-4.906672 6.54223-8.177787 6.542229s-8.177787-3.271115-8.177787-6.542229v-99.769002c0-3.271115 4.906672-6.54223 8.177787-6.542229s8.177787 3.271115 8.177787 6.542229V834.134275zM561.0657 834.134275c0 3.271115-4.906672 6.54223-8.177787 6.542229s-8.177787-3.271115-8.177787-6.542229v-99.769002c0-3.271115 4.906672-6.54223 8.177787-6.542229s8.177787 3.271115 8.177787 6.542229V834.134275z" fill="#A80404" p-id="2664"></path><path d="M544.710126 837.405389c0 3.271115-3.271115 6.54223-6.54223 6.54223h-4.906672c-3.271115 0-6.54223-3.271115-6.54223-6.54223v-103.040116c0-3.271115 3.271115-6.54223 6.54223-6.542229h4.906672c3.271115 0 6.54223 3.271115 6.54223 6.542229v103.040116z" fill="#FF0606" p-id="2665"></path><path d="M446.576682 834.134275h130.844592v16.355574h-130.844592z" fill="#841212" p-id="2666"></path><path d="M492.372289 1018.952261m-4.906672 0a4.906672 4.906672 0 1 0 9.813344 0 4.906672 4.906672 0 1 0-9.813344 0Z" fill="#A80404" p-id="2667"></path><path d="M511.998978 1018.952261m-4.906672 0a4.906672 4.906672 0 1 0 9.813344 0 4.906672 4.906672 0 1 0-9.813344 0Z" fill="#FF0606" p-id="2668"></path><path d="M531.625667 1018.952261m-4.906673 0a4.906672 4.906672 0 1 0 9.813345 0 4.906672 4.906672 0 1 0-9.813345 0Z" fill="#A80404" p-id="2669"></path><path d="M523.44788 1002.596687c0 1.635557-1.635557 3.271115-3.271115 3.271115h-17.991132c-1.635557 0-3.271115-1.635557-3.271114-3.271115s1.635557-3.271115 3.271114-3.271115h17.991132c1.635557 0 3.271115 1.635557 3.271115 3.271115z" fill="#FF0606" p-id="2670"></path><path d="M538.167896 426.880482l19.626689-19.626689-45.795607-78.506755-45.795607 78.506755 19.626688 19.626689 26.168919-26.168919zM511.998978 454.684958l-26.168919-27.804476-19.626688 19.626689 45.795607 78.506755 45.795607-78.506755-19.626689-19.626689zM525.083437 583.893992l11.448902-9.813344-24.533361-40.888935-22.897804 40.888935 9.813345 9.813344 13.084459-14.720016zM511.998978 596.978451l-13.084459-13.084459-9.813345 9.813345 22.897804 40.888935 24.533361-40.888935-11.448902-9.813345z" fill="#FFA412" p-id="2671"></path></svg>