<svg t="1587292919629" class="icon" viewBox="0 0 1024 1024" version="1.1" xmlns="http://www.w3.org/2000/svg" p-id="2575" width="200" height="200"><path d="M808.448 322.048c-12.8 12.288-23.552 0-23.552 0-14.336-2.56-12.288-13.824-12.288-13.824-17.92-5.12-9.728-16.896-9.728-16.896 4.608-6.656 14.336-0.512 14.336-0.512 7.68-6.656 18.432 2.048 20.992 4.096 1.536 4.096 4.096 6.656 4.096 6.656-1.024 1.536-1.024 3.584-0.512 5.12-4.096-2.048-10.24-3.072-10.24-3.072-9.728-1.024-8.192 5.632-8.192 5.632 1.536 10.752 11.264 10.24 11.264 10.24 6.144-1.024 3.584-5.12 3.584-5.12-1.024-1.536-3.584-6.144-6.656-4.096-1.024 0.512-1.024 1.536 0 2.048h1.024c0.512 0 0.512-0.512 1.024-0.512 1.024 0 2.048 1.024 2.56 2.048 1.536 4.096-2.048 3.072-2.048 3.072-11.264-4.096-7.68-10.24-7.68-10.24 4.096-4.096 14.848 1.024 14.848 1.024 1.024 0.512 1.536 1.024 2.048 1.536 1.536 2.56 3.584 4.608 6.144 6.656 1.536 4.096-1.024 6.144-1.024 6.144m53.248 6.144s17.92 9.216 21.504 1.024c0 0 24.064-5.632 9.216-26.112 0 0 6.144-8.704-5.12-16.384 0 0-12.288-7.68-19.968-1.024 0 0-5.632-5.12-15.872-7.168 0 0-15.36-3.072-14.848 5.632 0 0-9.728 0-11.264 8.704 0 0-3.072 12.288 15.872 21.504 0 0 4.608 2.048 9.728 3.584 4.608 1.024 10.24 1.536 12.8-0.512 0 0 18.944 1.024 6.144-11.776-0.512-2.56 0-6.656-10.752-10.752 0 0-11.264-4.608-13.824 0.512 0 0-3.072 4.096 7.68 9.216 0 0 7.168 3.072 5.632-0.512-0.512-1.024-0.512-1.536-1.536-2.048h-1.536s-0.512 0-0.512-0.512c-1.024-1.024 0-1.536 1.024-1.536 3.072 0 6.144 3.584 5.12 5.12 0 0-2.048 4.608-7.68 1.536 0 0-13.824-5.12-9.728-12.8 0 0 3.584-6.144 16.384-1.024 0 0 11.776 4.608 12.288 10.752 0 0 15.36 14.848-7.68 15.872 0 0-13.312 4.608-30.72-7.168 0 0-16.896-11.264-7.68-25.6 0 0 3.072-4.608 9.216-4.096 0 0-0.512-9.728 16.896-6.144 0 0 2.048 0.512 5.12 1.536-1.024-2.048-3.584-7.168-9.216-10.24 0 0-17.92-8.192-24.576 4.096 0 0-17.408-2.048-23.552 10.24 0 0-5.12 10.752 5.12 17.92 0 0-8.704 6.656 13.312 18.432 0 0-15.36 8.192 10.24 18.944 3.584 1.024 7.168 2.56 10.24 4.096 6.144 2.56 11.776 6.144 16.384 11.264 1.536 1.536 3.072 3.072 3.584 5.632 0.512 2.048-0.512 4.608-2.048 6.144-2.56 1.536-5.12 2.048-8.192 1.536-3.072-0.512-6.144-2.048-8.704-3.584 0 0-21.504-11.264-34.304-11.264 0 0-13.824 0-15.872 8.192 0 0-1.024 6.656 4.096 9.216-1.024-4.096-1.024-10.752 5.632-13.824 0 0 7.168-5.632 28.672 5.632 0 0 23.04 13.312 33.792 11.776 4.096-0.512 9.728-1.536 11.264-6.144 1.536-6.144-6.144-11.776-10.24-14.848-2.048-1.536-4.608-3.072-6.656-4.608 0 0-16.896-9.216-17.92-11.264 0 0-2.048-1.536 3.072-2.048 0 0 8.192 0 8.192-7.168-1.024 1.024 3.072-2.56 11.776 2.048m53.248 10.24c-3.584-1.024-8.192-3.584-9.728-7.168-1.024-3.584-0.512-8.192 4.096-7.68 6.144 0.512 4.096 4.608 4.096 4.608-2.048 3.072-0.512 3.072-0.512 3.072 3.072-0.512 3.072-4.096 2.048-6.144-1.024-2.048-3.584-3.584-6.144-3.584-1.536 0-3.072 0.512-4.096 1.536-6.656 5.12 1.536 13.824 1.536 13.824 1.024 1.024 2.048 1.536 3.072 2.048-2.048 3.072-11.776 12.288-26.624-5.632l1.536-1.536c25.088-7.68 10.24-28.16 10.24-28.16 4.608-8.192-2.56-14.336-2.56-14.336-0.512-0.512-1.024-0.512-1.536-1.024 20.992-4.096 23.552 13.824 23.552 13.824 6.656 4.608 0.512 10.752 0.512 10.752 13.824 5.632 12.8 15.872 12.8 15.872-1.024 13.312-12.288 9.728-12.288 9.728M167.936 425.984c3.072 5.12 0 11.776 5.12 17.408 4.608 5.12 13.312 8.704 20.48 10.752-7.168 1.024-22.016 0-29.184-1.536-14.336-3.584-25.6-14.336-24.064-19.968 1.024-4.096 3.072-6.144 6.656-5.632 3.072-4.096 8.704-4.608 11.776-2.048 3.072-3.584 7.68-1.536 9.216 1.024" fill="#E7394B" p-id="2576"></path><path d="M177.152 403.968c-4.608-0.512-9.216 2.56-12.8 4.608-13.824-9.216-25.088-11.776-34.304 1.536-12.288-2.048-21.504 2.56-19.968 16.896 0.512 5.632 4.608 10.752 10.24 13.312 8.192 4.096 14.336 1.536 14.848-7.168 0.512-9.216-8.192-9.728-12.8-9.216 4.096-4.096 10.24-2.56 12.8 0 1.536 1.536 2.048 6.144 2.56 8.192 1.024-4.608 4.096-10.24 8.192-9.216 2.56-3.584 7.68-4.096 12.8-2.56 8.704-5.12 13.824 5.12 13.312 9.728-1.536 17.408 23.552 24.064 40.448 19.456-5.632 1.536-15.872 6.144-24.576 6.144-19.968 0.512-41.984-1.536-50.688-21.504-3.584 7.68-1.536 9.216 2.56 13.824 11.264 11.776 26.624 15.872 36.352 16.384 11.776 0 26.624-4.096 36.352-9.216 5.632-3.072 14.848-10.24 19.456-12.8 3.584-2.048 14.336-10.24 19.968-12.8-21.504 2.56-53.76 26.624-67.072 12.288-6.656-7.68 2.56-18.432 10.24-10.752-2.048 0.512-6.656-1.536-8.704 1.024-2.56 4.096-2.048 6.656 1.536 9.216 6.144 4.608 19.456 3.584 19.968-11.776 0-6.656-8.704-14.848-19.968-14.848-1.536-3.584-3.072-9.728-10.752-10.752M192 704c0-4.608 1.024-15.872-12.288-22.528-17.408-8.704-43.52 13.312-25.088 34.304 18.944 21.504 47.104 10.752 71.168 1.024 16.896-7.168 52.736-12.288 58.368-4.096 0 0 1.024-9.216-37.888-4.096-17.408 2.048-32.768 9.728-50.688 12.288-9.216 1.536-18.432 2.56-27.136-2.048-18.432-8.704-15.36-29.696 3.584-30.208 8.704 0 11.776 9.216 15.36 15.872 2.048 4.608 4.608 1.536 4.608-0.512" fill="#E7394B" p-id="2577"></path><path d="M205.312 715.776c-0.512 0.512-13.312 2.56-25.6-1.024-7.68-2.56-13.312-6.144-11.776-10.24 2.048-5.12 9.216-3.584 9.216 1.024 0 5.12 2.048 4.608 2.56 4.608 0 0 5.632-4.608 1.536-11.264-2.56-4.608-6.656-6.656-11.776-6.144-6.144 1.536-10.24 6.656-9.728 12.8 0.512 16.896 40.96 13.824 45.568 10.24M616.96 704.512c0-3.584-1.024-13.312 9.728-18.432 14.336-7.168 35.84 10.752 20.992 28.16-15.36 17.92-38.912 9.216-58.368 1.024-14.336-5.632-43.52-9.728-47.616-3.072 0 0-1.024-7.68 31.232-3.072 14.336 2.048 27.136 8.192 41.472 10.24 7.68 1.024 15.36 2.048 22.016-1.536 15.36-7.168 12.8-24.576-3.072-24.576-7.168 0-9.728 7.68-12.8 13.312-1.536 2.048-4.096-0.512-3.584-2.048" fill="#E7394B" p-id="2578"></path><path d="M606.208 713.728c0.512 0 10.752 2.048 20.992-1.024 6.144-2.048 11.264-5.12 9.728-8.192-1.536-4.096-7.68-2.56-7.68 1.024 0 4.608-1.536 3.584-2.048 3.584 0 0-4.608-3.584-1.536-9.216 2.048-3.584 5.632-5.632 9.728-4.608 4.608 1.536 8.192 5.12 8.192 10.24-0.512 14.336-33.792 11.776-37.376 8.192" fill="#E7394B" p-id="2579"></path><path d="M297.984 407.04c24.576 0 5.12 39.424 5.12 39.424 94.208-64.512 113.664-83.968 74.24-98.816s-98.816 29.696-98.816 29.696c-34.816 39.424 19.456 29.696 19.456 29.696z" fill="#ED1C24" p-id="2580"></path><path d="M434.176 414.72c29.696-9.728 39.424-24.576 34.816-69.12-5.12-44.544-49.664-49.664-49.664-49.664 14.848 9.728-14.848 69.12-14.848 69.12s0 59.392 29.696 49.664z" fill="#ED1C24" p-id="2581"></path><path d="M631.808 463.872c5.12-39.424-44.544-49.664-44.544-49.664 19.968-5.12 39.424-29.696 39.424-29.696 103.936-19.968 89.088-34.816 89.088-34.816-24.576-69.12-138.752-39.424-138.752-39.424C547.84 266.24 503.296 266.24 503.296 266.24c-29.696 0 9.728 49.664 9.728 49.664l9.728 5.12-39.424 5.12c-39.424 9.728 24.576 29.696 24.576 29.696-14.848 0 0 19.968 0 19.968 19.968 39.424-24.576 5.12-24.576 5.12-14.848-9.728-14.848 29.696-14.848 29.696 5.12 44.544 44.544 9.728 44.544 9.728V430.08l-14.848 9.728c-49.664 14.848-24.576 133.632-24.576 133.632-14.848 29.696-49.664 24.576-49.664 24.576-29.696 5.12-29.696-83.968-29.696-83.968 0-14.848-24.576-19.968-24.576-19.968 29.696-10.24 39.936-54.784 39.936-54.784-19.968-29.696-49.664-9.728-49.664-9.728-44.544 39.424-94.208 64.512-94.208 64.512-24.576 39.424 49.664 34.816 49.664 34.816-19.968 83.456-64.512 88.576-64.512 88.576-29.696-5.12-9.728-24.576-9.728-24.576 9.728-9.728 14.848 0 14.848 0-5.12-5.12-8.704 5.632-8.704 5.632 15.872 25.6 18.432-0.512 18.432-0.512 0-34.816-44.544-9.728-44.544-9.728-19.968 54.272 41.472 45.056 41.472 45.056 61.44-4.096 101.888-114.688 101.888-114.688 5.12 0 5.12 49.664 5.12 49.664 0 59.392 44.544 64.512 44.544 64.512 113.664 0 103.936-49.664 103.936-49.664-9.728-14.848-9.728-34.816-9.728-34.816 5.12 19.968 59.392-9.728 59.392-9.728v19.968c5.12 39.424-44.544 14.848-44.544 14.848l44.544 34.816c69.12 59.392 69.12-24.576 69.12-24.576-14.848-65.024-5.12-119.808-5.12-119.808z m10.24-123.392s-19.968 24.576-14.848 29.696c0 0-44.544-19.968-74.24-9.728 0-0.512 14.848-30.208 89.088-19.968z m-133.632 187.904s-5.12-9.728 0-44.544c0 0-4.608 37.888 46.08 11.776 7.68-6.144 3.072-1.536 3.072-1.536l-3.072 1.536c-3.584 3.072-10.24 8.192-21.504 17.92 0 0-19.968 5.12-24.576 14.848z m64 0s-5.12-19.968-19.968-9.728l-34.816 9.728s49.664-34.816 54.272-34.816c0 0 5.12-14.848-9.728-19.968 0 0 0-9.728-49.664 0 0 0 0-19.968 59.392-29.696 0.512 0.512 10.752 19.968 0.512 84.48z m0-133.632s-9.728 9.728-9.728 14.848c0 0-9.728-29.696 9.728-34.816 0 0 19.968-4.608 0 19.968z" fill="#ED1C24" p-id="2582"></path><path d="M554.496 495.616l3.072-1.536c0-0.512 4.608-4.608-3.072 1.536zM795.136 543.232c0-9.728-5.12-19.968-5.12-19.968-14.848-14.848-14.848 29.696-14.848 29.696l-14.848 5.12 5.12-19.968c5.12 0-9.728-9.728-9.728-9.728 5.12-9.728-9.728-14.848-9.728-14.848 5.12-5.12 5.12-9.728 5.12-9.728 39.424-74.24 54.272-64.512 54.272-64.512 0 14.848 14.848 29.696 14.848 29.696 34.816 9.728-44.544 24.576-44.544 24.576-24.576 19.968 94.208 5.12 94.208 5.12 44.544-14.848-5.12-29.696-5.12-29.696-34.816 0-44.544-34.816-44.544-34.816-24.576-29.696-74.24 29.696-74.24 29.696-34.816 19.968-24.576 5.12-24.576 5.12 5.12-5.12 0-14.848 0-14.848-5.12-14.848-34.816-24.576-34.816-24.576v5.12c9.728 19.968-24.576 34.816-24.576 34.816-34.816 24.576-19.968 34.816-19.968 34.816 19.968 29.696 44.544 0 44.544 0 14.848-14.848 29.696-14.848 29.696-14.848 9.728 9.728 24.576 19.968 24.576 19.968-19.968-9.728-64.512 19.968-64.512 19.968-14.848 9.728-34.816 0-34.816 0 0 5.12 24.576 14.848 24.576 14.848v14.848l-14.848 5.12 9.728 5.12c-14.848 54.272 0 103.936 0 103.936 39.424 44.544 74.24-19.968 74.24-19.968 29.696 14.848 29.696 5.12 29.696 5.12 9.728-19.968-44.544-49.664-44.544-49.664 24.576-5.12 29.696-34.816 29.696-34.816 14.848 9.728 24.576 0 24.576 0-5.12 59.392 14.848 252.416 14.848 252.416 5.12 54.272 9.728 44.544 9.728 44.544 29.696-19.968 9.728-198.144 9.728-198.144 109.056-24.576 69.12-109.056 69.12-109.056-18.432-45.056-82.944-20.48-82.944-20.48zM691.2 656.896c-9.728 0-5.12-24.576-5.12-24.576 5.12-5.12 9.728-59.392 9.728-59.392 5.12 0 19.968-9.728 19.968-9.728l-14.848 24.576v14.848l-5.12 5.12h5.12c-5.12 5.12 19.968 29.696 19.968 29.696-9.728-0.512-29.696 19.456-29.696 19.456z m34.816-113.664s-24.576-5.12-29.696 5.12l-9.728-5.12 44.544-24.576-5.12 24.576z m79.36 93.696l-5.12-74.24s34.816-19.968 39.424-9.728c0 0 14.848 64.512-34.304 83.968z" fill="#ED1C24" p-id="2583"></path><path d="M506.88 209.408c77.312 0 147.456 31.232 198.656 81.408l15.36-12.8C666.112 223.232 590.336 189.44 506.88 189.44c-114.176 0-214.016 63.488-265.728 157.184 5.12 3.072 10.752 6.656 16.896 10.24C306.688 268.8 399.872 209.408 506.88 209.408zM674.816 721.92c-0.512 0-0.512-0.512-1.024-0.512-46.592 34.304-104.448 54.272-166.912 54.272-61.952 0-119.296-19.968-165.888-53.76l-2.56 7.68-2.048 1.536-7.68 6.144c50.176 36.352 111.616 57.856 177.664 57.856 69.632 0 133.632-23.552 184.32-62.976-10.24-4.608-11.264-6.144-12.288-6.656 0.512 0-1.024-1.536-3.584-3.584z" fill="#ED1C24" p-id="2584"></path><path d="M692.736 711.168c-0.512-0.512-1.536-1.536-3.072-2.56-5.12 4.608-10.24 8.704-15.872 12.8 0.512 0 0.512 0.512 1.024 0.512 2.56 2.048 4.096 3.072 4.608 3.584 0.512 0.512 2.048 2.048 12.288 6.656l16.896-13.824c-8.192-3.072-13.824-6.144-15.872-7.168zM719.36 305.152l15.36-12.8c-4.608-5.12-8.704-9.728-13.312-14.336l-15.36 12.8c4.608 4.608 8.704 9.216 13.312 14.336zM249.856 374.784c2.56-6.144 5.632-11.776 8.704-17.92-6.144-3.584-11.776-7.168-16.896-10.24-3.072 5.632-6.144 11.776-9.216 17.408 5.12 3.072 11.264 6.656 17.408 10.752zM338.432 729.6l2.56-7.68c-5.632-4.096-11.264-8.192-16.384-12.8l-3.072 8.704c-2.56 2.56-5.632 4.608-8.704 7.168 5.12 4.096 10.752 8.704 15.872 12.288 2.56-2.048 4.608-4.096 7.68-6.144l2.048-1.536z" fill="#ED1C24" p-id="2585"></path></svg>